<svg width="493" height="447" viewBox="0 0 493 447" fill="none" xmlns="http://www.w3.org/2000/svg">
<rect width="493" height="447" rx="40" fill="white"/>
<path d="M150.826 263.294L225.724 156.058L240.57 134.714L199.326 79.6435L240.765 21L21 332.007H102.745L150.826 263.294Z" fill="url(#paint0_linear_5101_91718)"/>
<path fill-rule="evenodd" clip-rule="evenodd" d="M322.511 263.294L373.453 332.007H323.898H102.745L150.826 263.294H322.511Z" fill="url(#paint1_linear_5101_91718)"/>
<path d="M388.12 331.778H473.827L240.765 21L199.326 79.6435L388.12 331.778Z" fill="url(#paint2_linear_5101_91718)"/>
<path d="M311.848 343.835H373.453C373.453 343.835 316.587 427.95 251.427 427.95C186.268 427.95 129.402 343.835 129.402 343.835H191.007C191.007 343.835 213.517 381.154 251.427 381.154C289.338 381.154 311.848 343.835 311.848 343.835Z" fill="url(#paint3_linear_5101_91718)"/>
<defs>
<linearGradient id="paint0_linear_5101_91718" x1="218.493" y1="83.0358" x2="72.3883" y2="274.485" gradientUnits="userSpaceOnUse">
<stop/>
<stop offset="1" stop-color="#8D6553"/>
</linearGradient>
<linearGradient id="paint1_linear_5101_91718" x1="89.2522" y1="306.462" x2="338.635" y2="307.119" gradientUnits="userSpaceOnUse">
<stop/>
<stop offset="1" stop-color="#8D6553"/>
</linearGradient>
<linearGradient id="paint2_linear_5101_91718" x1="433.365" y1="327.911" x2="230.277" y2="39.3057" gradientUnits="userSpaceOnUse">
<stop/>
<stop offset="1" stop-color="#8D6553"/>
</linearGradient>
<linearGradient id="paint3_linear_5101_91718" x1="369.307" y1="345.02" x2="122.886" y2="344.428" gradientUnits="userSpaceOnUse">
<stop/>
<stop offset="0.2" stop-color="#513B31"/>
<stop offset="0.5" stop-color="#8D6654"/>
<stop offset="0.8" stop-color="#513B31"/>
<stop offset="1"/>
</linearGradient>
</defs>
</svg>
