<svg width="1662" height="689" viewBox="0 0 1662 689" fill="none" xmlns="http://www.w3.org/2000/svg">
<path d="M740.826 263.294L815.724 156.058L830.57 134.714L789.326 79.6435L830.765 21L611 332.007H692.745L740.826 263.294Z" fill="white"/>
<path fill-rule="evenodd" clip-rule="evenodd" d="M912.51 263.294L963.453 332.007H913.898H692.745L740.826 263.294H912.51Z" fill="white"/>
<path d="M978.12 331.778H1063.83L830.765 21L789.326 79.6435L978.12 331.778Z" fill="white"/>
<path d="M901.848 343.835H963.453C963.453 343.835 906.587 427.95 841.427 427.95C776.268 427.95 719.402 343.835 719.402 343.835H781.007C781.007 343.835 803.517 381.154 841.427 381.154C879.338 381.154 901.848 343.835 901.848 343.835Z" fill="white"/>
<path d="M234.871 669.53C221.061 669.53 208.593 666.461 197.468 660.323C186.535 653.994 177.808 645.362 171.286 634.429C164.957 623.496 161.792 611.22 161.792 597.602C161.792 583.984 164.957 571.803 171.286 561.062C177.616 550.129 186.151 541.498 196.893 535.168C207.826 528.839 219.91 525.674 233.144 525.674C245.996 525.674 257.312 528.647 267.094 534.593C277.069 540.539 284.837 548.691 290.399 559.048C296.153 569.406 299.031 581.202 299.031 594.437C299.031 596.739 298.838 599.136 298.455 601.63C298.263 603.932 297.88 606.521 297.304 609.398H183.946V583.504H280.905L269.108 593.862C268.725 585.422 267.094 578.325 264.217 572.571C261.34 566.817 257.217 562.405 251.846 559.336C246.667 556.267 240.241 554.733 232.569 554.733C224.513 554.733 217.512 556.459 211.566 559.911C205.62 563.364 201.016 568.255 197.756 574.585C194.495 580.723 192.865 588.107 192.865 596.739C192.865 605.37 194.591 612.946 198.044 619.468C201.496 625.99 206.387 631.072 212.717 634.717C219.047 638.169 226.335 639.896 234.583 639.896C241.68 639.896 248.201 638.649 254.147 636.155C260.285 633.661 265.464 630.018 269.684 625.222L289.824 645.65C283.111 653.514 274.958 659.46 265.368 663.488C255.778 667.516 245.612 669.53 234.871 669.53ZM408.651 666.653L368.947 608.247L363.192 603.068L309.678 528.551H347.944L383.332 579.764L388.799 584.655L446.629 666.653H408.651ZM307.089 666.653L362.905 589.258L381.318 611.988L343.916 666.653H307.089ZM391.676 602.493L372.975 580.052L407.5 528.551H444.04L391.676 602.493ZM468.579 666.653V528.551H500.227V666.653H468.579ZM484.403 503.232C479.032 503.232 474.524 501.41 470.88 497.766C467.428 494.121 465.701 489.614 465.701 484.243C465.701 478.873 467.428 474.365 470.88 470.721C474.524 467.076 479.032 465.254 484.403 465.254C489.965 465.254 494.473 467.076 497.925 470.721C501.378 474.365 503.104 478.873 503.104 484.243C503.104 489.614 501.378 494.121 497.925 497.766C494.473 501.41 489.965 503.232 484.403 503.232ZM600.027 669.53C586.408 669.53 574.036 666.365 562.912 660.035C551.979 653.706 543.348 645.074 537.018 634.141C530.688 623.208 527.524 611.029 527.524 597.602C527.524 583.984 530.688 571.803 537.018 561.062C543.348 550.129 551.979 541.498 562.912 535.168C574.036 528.839 586.408 525.674 600.027 525.674C610.768 525.674 620.742 527.784 629.949 532.003C639.347 536.031 647.307 541.881 653.829 549.554L633.114 570.557C629.086 565.761 624.195 562.213 618.441 559.911C612.878 557.418 606.74 556.171 600.027 556.171C592.162 556.171 585.162 557.993 579.024 561.638C573.078 565.091 568.379 569.886 564.926 576.024C561.665 582.161 560.035 589.354 560.035 597.602C560.035 605.658 561.665 612.851 564.926 619.18C568.379 625.318 573.078 630.209 579.024 633.854C585.162 637.306 592.162 639.032 600.027 639.032C606.74 639.032 612.878 637.882 618.441 635.58C624.195 633.086 629.086 629.442 633.114 624.647L653.829 645.65C647.307 653.322 639.347 659.268 629.949 663.488C620.742 667.516 610.768 669.53 600.027 669.53ZM737.852 669.53C724.426 669.53 712.246 666.365 701.312 660.035C690.379 653.514 681.653 644.787 675.131 633.854C668.801 622.92 665.636 610.741 665.636 597.314C665.636 583.887 668.801 571.803 675.131 561.062C681.653 550.321 690.379 541.786 701.312 535.456C712.246 528.934 724.426 525.674 737.852 525.674C751.471 525.674 763.746 528.839 774.679 535.168C785.612 541.498 794.244 550.129 800.573 561.062C807.095 571.803 810.355 583.887 810.355 597.314C810.355 610.741 807.095 622.92 800.573 633.854C794.244 644.787 785.612 653.514 774.679 660.035C763.746 666.365 751.471 669.53 737.852 669.53ZM737.852 639.032C745.717 639.032 752.622 637.306 758.567 633.854C764.706 630.209 769.405 625.222 772.665 618.893C776.118 612.563 777.844 605.37 777.844 597.314C777.844 589.258 776.118 582.161 772.665 576.024C769.213 569.886 764.514 565.091 758.567 561.638C752.622 557.993 745.717 556.171 737.852 556.171C730.18 556.171 723.275 557.993 717.137 561.638C711.191 565.091 706.491 569.886 703.039 576.024C699.778 582.161 698.148 589.258 698.148 597.314C698.148 605.37 699.778 612.563 703.039 618.893C706.491 625.222 711.191 630.209 717.137 633.854C723.275 637.306 730.18 639.032 737.852 639.032ZM932.055 666.653V586.957C932.055 577.75 929.077 570.174 923.136 564.227C917.381 558.281 909.901 555.308 900.694 555.308C894.552 555.308 889.085 556.651 884.295 559.336C879.496 562.021 875.755 565.761 873.07 570.557C870.385 575.352 869.042 580.819 869.042 586.957L856.671 580.052C856.671 569.502 858.972 560.199 863.576 552.143C868.179 543.895 874.509 537.47 882.568 532.867C890.811 528.071 900.018 525.674 910.189 525.674C920.546 525.674 929.753 528.359 937.809 533.73C945.865 538.909 952.195 545.718 956.798 554.157C961.401 562.405 963.703 571.037 963.703 580.052V666.653H932.055ZM837.394 666.653V528.551H869.042V666.653H837.394ZM1059.22 666.653V465.254H1092.3V666.653H1059.22ZM1081.95 666.653V636.443H1187.25V666.653H1081.95ZM1266.86 669.53C1254.39 669.53 1243.07 666.365 1232.91 660.035C1222.93 653.706 1214.97 645.17 1209.03 634.429C1203.27 623.496 1200.4 611.316 1200.4 597.89C1200.4 584.271 1203.27 572.091 1209.03 561.35C1214.97 550.417 1222.93 541.786 1232.91 535.456C1243.07 528.934 1254.39 525.674 1266.86 525.674C1277.4 525.674 1286.71 527.976 1294.77 532.579C1303.01 536.99 1309.53 543.129 1314.33 550.992C1319.12 558.856 1321.52 567.776 1321.52 577.75V617.454C1321.52 627.428 1319.12 636.347 1314.33 644.211C1309.73 652.075 1303.3 658.309 1295.05 662.913C1286.8 667.324 1277.4 669.53 1266.86 669.53ZM1272.04 639.608C1283.73 639.608 1293.13 635.675 1300.23 627.812C1307.52 619.948 1311.17 609.878 1311.17 597.602C1311.17 589.354 1309.53 582.065 1306.27 575.736C1303.01 569.406 1298.41 564.515 1292.46 561.062C1286.71 557.418 1279.9 555.596 1272.04 555.596C1264.36 555.596 1257.55 557.418 1251.61 561.062C1245.86 564.515 1241.25 569.406 1237.8 575.736C1234.53 582.065 1232.91 589.354 1232.91 597.602C1232.91 605.85 1234.53 613.138 1237.8 619.468C1241.25 625.798 1245.86 630.784 1251.61 634.429C1257.55 637.882 1264.36 639.608 1272.04 639.608ZM1309.15 666.653V629.538L1314.62 595.876L1309.15 562.501V528.551H1340.8V666.653H1309.15ZM1450.58 669.53C1440.03 669.53 1430.63 667.324 1422.39 662.913C1414.14 658.309 1407.61 652.075 1402.82 644.211C1398.22 636.347 1395.92 627.428 1395.92 617.454V577.75C1395.92 567.776 1398.31 558.856 1403.11 550.992C1407.9 543.129 1414.43 536.99 1422.68 532.579C1430.92 527.976 1440.23 525.674 1450.58 525.674C1463.05 525.674 1474.27 528.934 1484.25 535.456C1494.41 541.786 1502.37 550.417 1508.13 561.35C1514.07 572.091 1517.05 584.271 1517.05 597.89C1517.05 611.316 1514.07 623.496 1508.13 634.429C1502.37 645.17 1494.41 653.706 1484.25 660.035C1474.27 666.365 1463.05 669.53 1450.58 669.53ZM1376.64 666.653V459.5H1408.29V562.501L1402.82 595.876L1408.29 629.538V666.653H1376.64ZM1445.41 639.608C1453.07 639.608 1459.79 637.882 1465.55 634.429C1471.49 630.784 1476.09 625.798 1479.36 619.468C1482.81 613.138 1484.53 605.85 1484.53 597.602C1484.53 589.354 1482.81 582.065 1479.36 575.736C1476.09 569.406 1471.49 564.515 1465.55 561.062C1459.79 557.418 1453.07 555.596 1445.41 555.596C1437.73 555.596 1430.92 557.418 1424.98 561.062C1419.03 564.515 1414.43 569.406 1411.17 575.736C1407.9 582.065 1406.28 589.354 1406.28 597.602C1406.28 605.85 1407.9 613.138 1411.17 619.468C1414.43 625.798 1419.03 630.784 1424.98 634.429C1430.92 637.882 1437.73 639.608 1445.41 639.608ZM1589.43 669.53C1581.75 669.53 1574.37 668.571 1567.27 666.653C1560.17 664.543 1553.66 661.666 1547.71 658.021C1541.76 654.186 1536.58 649.582 1532.17 644.211L1552.31 624.071C1557.11 629.634 1562.58 633.854 1568.71 636.731C1575.04 639.416 1582.14 640.759 1590 640.759C1597.1 640.759 1602.47 639.704 1606.11 637.594C1609.76 635.484 1611.58 632.415 1611.58 628.387C1611.58 624.167 1609.85 620.906 1606.4 618.605C1602.95 616.303 1598.44 614.385 1592.88 612.851C1587.51 611.124 1581.75 609.398 1575.62 607.672C1569.67 605.946 1563.91 603.644 1558.35 600.767C1552.98 597.698 1548.57 593.574 1545.12 588.395C1541.67 583.216 1539.94 576.503 1539.94 568.255C1539.94 559.432 1541.95 551.856 1545.98 545.526C1550.2 539.196 1556.05 534.305 1563.53 530.853C1571.21 527.4 1580.31 525.674 1590.87 525.674C1601.99 525.674 1611.77 527.688 1620.21 531.716C1628.84 535.552 1636.04 541.402 1641.79 549.266L1621.65 569.406C1617.62 564.419 1613.02 560.679 1607.84 558.185C1602.66 555.692 1596.71 554.445 1590 554.445C1583.67 554.445 1578.78 555.404 1575.33 557.322C1571.88 559.241 1570.15 562.021 1570.15 565.666C1570.15 569.502 1571.88 572.475 1575.33 574.585C1578.78 576.695 1583.19 578.517 1588.56 580.052C1594.12 581.586 1599.88 583.312 1605.83 585.23C1611.96 586.957 1617.72 589.45 1623.09 592.711C1628.65 595.78 1633.16 599.999 1636.61 605.37C1640.06 610.549 1641.79 617.358 1641.79 625.798C1641.79 639.224 1637.09 649.87 1627.69 657.734C1618.29 665.598 1605.54 669.53 1589.43 669.53Z" fill="white"/>
<path d="M20 465.254V666.653H42.7293V636.443H53.0869V465.254H20Z" fill="white"/>
<path d="M42.7293 666.653H53.0869V636.443H42.7293V666.653Z" fill="white"/>
<path d="M148.032 666.653V636.443H53.0869V666.653H148.032Z" fill="white"/>
</svg>
