<svg width="1662" height="689" viewBox="0 0 1662 689" fill="none" xmlns="http://www.w3.org/2000/svg">
<path d="M740.852 262.291L815.75 155.055L830.596 133.711L789.352 78.6406L830.791 19.9971L611.026 331.004H692.771L740.852 262.291Z" fill="url(#paint0_linear_5107_91736)"/>
<path fill-rule="evenodd" clip-rule="evenodd" d="M912.536 262.291L963.479 331.004H913.924H692.771L740.852 262.291H912.536Z" fill="url(#paint1_linear_5107_91736)"/>
<path d="M978.146 330.775H1063.85L830.791 19.9971L789.352 78.6406L978.146 330.775Z" fill="url(#paint2_linear_5107_91736)"/>
<path d="M901.874 342.832H963.479C963.479 342.832 906.613 426.947 841.453 426.947C776.294 426.947 719.428 342.832 719.428 342.832H781.033C781.033 342.832 803.543 380.151 841.453 380.151C879.364 380.151 901.874 342.832 901.874 342.832Z" fill="url(#paint3_linear_5107_91736)"/>
<path d="M234.873 669.002C221.062 669.002 208.595 665.933 197.47 659.795C186.537 653.466 177.81 644.834 171.288 633.901C164.959 622.968 161.794 610.692 161.794 597.074C161.794 583.456 164.959 571.275 171.288 560.534C177.618 549.601 186.153 540.97 196.895 534.64C207.828 528.31 219.912 525.146 233.146 525.146C245.998 525.146 257.314 528.119 267.096 534.065C277.071 540.011 284.839 548.163 290.401 558.52C296.155 568.878 299.032 580.674 299.032 593.909C299.032 596.211 298.84 598.608 298.457 601.102C298.265 603.404 297.882 605.993 297.306 608.87H183.948V582.976H280.906L269.11 593.333C268.727 584.894 267.096 577.797 264.219 572.043C261.342 566.289 257.219 561.877 251.848 558.808C246.669 555.739 240.243 554.205 232.571 554.205C224.515 554.205 217.514 555.931 211.568 559.383C205.622 562.836 201.018 567.727 197.758 574.057C194.497 580.194 192.867 587.579 192.867 596.211C192.867 604.842 194.593 612.418 198.045 618.94C201.498 625.462 206.389 630.544 212.719 634.188C219.048 637.641 226.337 639.368 234.585 639.368C241.682 639.368 248.203 638.121 254.149 635.627C260.287 633.133 265.466 629.49 269.686 624.694L289.826 645.122C283.113 652.986 274.96 658.932 265.37 662.96C255.78 666.988 245.614 669.002 234.873 669.002ZM408.653 666.125L368.949 607.719L363.194 602.54L309.68 528.023H347.946L383.334 579.236L388.801 584.127L446.631 666.125H408.653ZM307.091 666.125L362.907 588.73L381.32 611.459L343.918 666.125H307.091ZM391.678 601.965L372.977 579.523L407.502 528.023H444.042L391.678 601.965ZM468.581 666.125V528.023H500.229V666.125H468.581ZM484.405 502.704C479.034 502.704 474.526 500.882 470.882 497.238C467.43 493.593 465.703 489.086 465.703 483.715C465.703 478.344 467.43 473.837 470.882 470.193C474.526 466.548 479.034 464.726 484.405 464.726C489.967 464.726 494.475 466.548 497.927 470.193C501.38 473.837 503.106 478.344 503.106 483.715C503.106 489.086 501.38 493.593 497.927 497.238C494.475 500.882 489.967 502.704 484.405 502.704ZM600.029 669.002C586.41 669.002 574.038 665.837 562.914 659.507C551.981 653.178 543.35 644.546 537.02 633.613C530.69 622.68 527.526 610.501 527.526 597.074C527.526 583.456 530.69 571.275 537.02 560.534C543.35 549.601 551.981 540.97 562.914 534.64C574.038 528.31 586.41 525.146 600.029 525.146C610.77 525.146 620.744 527.255 629.951 531.475C639.349 535.503 647.309 541.353 653.831 549.026L633.116 570.029C629.088 565.233 624.197 561.685 618.443 559.383C612.88 556.89 606.742 555.643 600.029 555.643C592.164 555.643 585.164 557.465 579.026 561.11C573.08 564.562 568.381 569.358 564.928 575.495C561.667 581.633 560.037 588.826 560.037 597.074C560.037 605.13 561.667 612.323 564.928 618.652C568.381 624.79 573.08 629.681 579.026 633.325C585.164 636.778 592.164 638.504 600.029 638.504C606.742 638.504 612.88 637.354 618.443 635.052C624.197 632.558 629.088 628.914 633.116 624.119L653.831 645.122C647.309 652.794 639.349 658.74 629.951 662.96C620.744 666.988 610.77 669.002 600.029 669.002ZM737.854 669.002C724.428 669.002 712.247 665.837 701.314 659.507C690.381 652.986 681.655 644.258 675.133 633.325C668.803 622.392 665.638 610.213 665.638 596.786C665.638 583.359 668.803 571.275 675.133 560.534C681.655 549.793 690.381 541.258 701.314 534.928C712.247 528.406 724.428 525.146 737.854 525.146C751.473 525.146 763.748 528.31 774.681 534.64C785.614 540.97 794.246 549.601 800.575 560.534C807.097 571.275 810.357 583.359 810.357 596.786C810.357 610.213 807.097 622.392 800.575 633.325C794.246 644.258 785.614 652.986 774.681 659.507C763.748 665.837 751.473 669.002 737.854 669.002ZM737.854 638.504C745.719 638.504 752.624 636.778 758.569 633.325C764.708 629.681 769.407 624.694 772.667 618.365C776.12 612.035 777.846 604.842 777.846 596.786C777.846 588.73 776.12 581.633 772.667 575.495C769.215 569.358 764.516 564.562 758.569 561.11C752.624 557.465 745.719 555.643 737.854 555.643C730.182 555.643 723.277 557.465 717.139 561.11C711.193 564.562 706.493 569.358 703.041 575.495C699.78 581.633 698.15 588.73 698.15 596.786C698.15 604.842 699.78 612.035 703.041 618.365C706.493 624.694 711.193 629.681 717.139 633.325C723.277 636.778 730.182 638.504 737.854 638.504ZM932.057 666.125V586.428C932.057 577.222 929.079 569.645 923.138 563.699C917.383 557.753 909.903 554.78 900.696 554.78C894.554 554.78 889.087 556.123 884.297 558.808C879.498 561.493 875.757 565.233 873.072 570.029C870.387 574.824 869.044 580.291 869.044 586.428L856.673 579.523C856.673 568.974 858.974 559.671 863.578 551.615C868.181 543.367 874.511 536.942 882.57 532.339C890.813 527.543 900.02 525.146 910.191 525.146C920.548 525.146 929.755 527.831 937.811 533.202C945.867 538.38 952.197 545.19 956.8 553.629C961.403 561.877 963.705 570.509 963.705 579.523V666.125H932.057ZM837.396 666.125V528.023H869.044V666.125H837.396ZM1059.22 666.125V464.726H1092.31V666.125H1059.22ZM1081.95 666.125V635.915H1187.25V666.125H1081.95ZM1266.86 669.002C1254.39 669.002 1243.07 665.837 1232.91 659.507C1222.93 653.178 1214.97 644.642 1209.03 633.901C1203.28 622.968 1200.4 610.788 1200.4 597.361C1200.4 583.743 1203.28 571.563 1209.03 560.822C1214.97 549.889 1222.93 541.258 1232.91 534.928C1243.07 528.406 1254.39 525.146 1266.86 525.146C1277.41 525.146 1286.71 527.447 1294.77 532.051C1303.01 536.462 1309.54 542.6 1314.33 550.464C1319.12 558.328 1321.53 567.247 1321.53 577.222V616.926C1321.53 626.9 1319.12 635.819 1314.33 643.683C1309.73 651.547 1303.3 657.781 1295.06 662.384C1286.81 666.796 1277.41 669.002 1266.86 669.002ZM1272.04 639.08C1283.73 639.08 1293.14 635.147 1300.24 627.283C1307.52 619.42 1311.17 609.35 1311.17 597.074C1311.17 588.826 1309.54 581.537 1306.28 575.208C1303.01 568.878 1298.41 563.987 1292.47 560.534C1286.71 556.89 1279.9 555.068 1272.04 555.068C1264.36 555.068 1257.55 556.89 1251.61 560.534C1245.86 563.987 1241.25 568.878 1237.8 575.208C1234.54 581.537 1232.91 588.826 1232.91 597.074C1232.91 605.322 1234.54 612.61 1237.8 618.94C1241.25 625.269 1245.86 630.256 1251.61 633.901C1257.55 637.354 1264.36 639.08 1272.04 639.08ZM1309.15 666.125V629.01L1314.62 595.347L1309.15 561.973V528.023H1340.8V666.125H1309.15ZM1450.59 669.002C1440.03 669.002 1430.63 666.796 1422.39 662.384C1414.14 657.781 1407.62 651.547 1402.83 643.683C1398.22 635.819 1395.92 626.9 1395.92 616.926V577.222C1395.92 567.247 1398.32 558.328 1403.11 550.464C1407.9 542.6 1414.43 536.462 1422.68 532.051C1430.92 527.447 1440.23 525.146 1450.59 525.146C1463.05 525.146 1474.27 528.406 1484.25 534.928C1494.41 541.258 1502.37 549.889 1508.13 560.822C1514.07 571.563 1517.05 583.743 1517.05 597.361C1517.05 610.788 1514.07 622.968 1508.13 633.901C1502.37 644.642 1494.41 653.178 1484.25 659.507C1474.27 665.837 1463.05 669.002 1450.59 669.002ZM1376.64 666.125V458.972H1408.29V561.973L1402.83 595.347L1408.29 629.01V666.125H1376.64ZM1445.41 639.08C1453.07 639.08 1459.79 637.354 1465.55 633.901C1471.49 630.256 1476.09 625.269 1479.36 618.94C1482.81 612.61 1484.54 605.322 1484.54 597.074C1484.54 588.826 1482.81 581.537 1479.36 575.208C1476.09 568.878 1471.49 563.987 1465.55 560.534C1459.79 556.89 1453.07 555.068 1445.41 555.068C1437.73 555.068 1430.92 556.89 1424.98 560.534C1419.03 563.987 1414.43 568.878 1411.17 575.208C1407.9 581.537 1406.28 588.826 1406.28 597.074C1406.28 605.322 1407.9 612.61 1411.17 618.94C1414.43 625.269 1419.03 630.256 1424.98 633.901C1430.92 637.354 1437.73 639.08 1445.41 639.08ZM1589.43 669.002C1581.75 669.002 1574.37 668.043 1567.27 666.125C1560.18 664.015 1553.66 661.138 1547.71 657.493C1541.76 653.657 1536.58 649.054 1532.17 643.683L1552.31 623.543C1557.11 629.106 1562.58 633.326 1568.71 636.203C1575.04 638.888 1582.14 640.231 1590 640.231C1597.1 640.231 1602.47 639.175 1606.12 637.066C1609.76 634.956 1611.58 631.887 1611.58 627.859C1611.58 623.639 1609.86 620.378 1606.4 618.077C1602.95 615.775 1598.44 613.857 1592.88 612.323C1587.51 610.596 1581.75 608.87 1575.62 607.144C1569.67 605.417 1563.92 603.116 1558.36 600.239C1552.98 597.169 1548.57 593.046 1545.12 587.867C1541.67 582.688 1539.94 575.975 1539.94 567.727C1539.94 558.904 1541.96 551.327 1545.98 544.998C1550.21 538.668 1556.05 533.777 1563.53 530.325C1571.21 526.872 1580.32 525.146 1590.87 525.146C1601.99 525.146 1611.78 527.16 1620.21 531.188C1628.85 535.024 1636.04 540.874 1641.79 548.738L1621.65 568.878C1617.62 563.891 1613.02 560.151 1607.84 557.657C1602.66 555.163 1596.72 553.917 1590 553.917C1583.67 553.917 1578.78 554.876 1575.33 556.794C1571.88 558.712 1570.15 561.493 1570.15 565.138C1570.15 568.974 1571.88 571.947 1575.33 574.057C1578.78 576.166 1583.19 577.989 1588.57 579.523C1594.13 581.058 1599.88 582.784 1605.83 584.702C1611.96 586.428 1617.72 588.922 1623.09 592.183C1628.65 595.252 1633.16 599.471 1636.61 604.842C1640.07 610.021 1641.79 616.83 1641.79 625.27C1641.79 638.696 1637.1 649.342 1627.69 657.206C1618.29 665.069 1605.54 669.002 1589.43 669.002Z" fill="url(#paint4_linear_5107_91736)"/>
<path d="M20.002 464.726V666.125H42.7313V635.915H53.0889V464.726H20.002Z" fill="url(#paint5_linear_5107_91736)"/>
<path d="M42.7313 666.125H53.0889V635.915H42.7313V666.125Z" fill="url(#paint6_linear_5107_91736)"/>
<path d="M148.034 666.125V635.915H53.0889V666.125H148.034Z" fill="url(#paint7_linear_5107_91736)"/>
<defs>
<linearGradient id="paint0_linear_5107_91736" x1="810.003" y1="91.9971" x2="869.554" y2="178.034" gradientUnits="userSpaceOnUse">
<stop/>
<stop offset="1" stop-color="#8D6553"/>
</linearGradient>
<linearGradient id="paint1_linear_5107_91736" x1="678.003" y1="295.997" x2="937.593" y2="284.631" gradientUnits="userSpaceOnUse">
<stop/>
<stop offset="1" stop-color="#8D6553"/>
</linearGradient>
<linearGradient id="paint2_linear_5107_91736" x1="1024" y1="327.997" x2="1090.6" y2="213.405" gradientUnits="userSpaceOnUse">
<stop/>
<stop offset="1" stop-color="#8D6553"/>
</linearGradient>
<linearGradient id="paint3_linear_5107_91736" x1="958.003" y1="344.997" x2="738.003" y2="344.997" gradientUnits="userSpaceOnUse">
<stop/>
<stop offset="0.2" stop-color="#513B31"/>
<stop offset="0.5" stop-color="#8D6654"/>
<stop offset="0.8" stop-color="#513B31"/>
<stop offset="1"/>
</linearGradient>
<linearGradient id="paint4_linear_5107_91736" x1="-84.69" y1="794.017" x2="-331.111" y2="793.425" gradientUnits="userSpaceOnUse">
<stop/>
<stop offset="0.2" stop-color="#513B31"/>
<stop offset="0.5" stop-color="#8D6654"/>
<stop offset="0.8" stop-color="#513B31"/>
<stop offset="1"/>
</linearGradient>
<linearGradient id="paint5_linear_5107_91736" x1="-84.69" y1="794.017" x2="-331.111" y2="793.425" gradientUnits="userSpaceOnUse">
<stop/>
<stop offset="0.2" stop-color="#513B31"/>
<stop offset="0.5" stop-color="#8D6654"/>
<stop offset="0.8" stop-color="#513B31"/>
<stop offset="1"/>
</linearGradient>
<linearGradient id="paint6_linear_5107_91736" x1="-84.69" y1="794.017" x2="-331.111" y2="793.425" gradientUnits="userSpaceOnUse">
<stop/>
<stop offset="0.2" stop-color="#513B31"/>
<stop offset="0.5" stop-color="#8D6654"/>
<stop offset="0.8" stop-color="#513B31"/>
<stop offset="1"/>
</linearGradient>
<linearGradient id="paint7_linear_5107_91736" x1="-84.69" y1="794.017" x2="-331.111" y2="793.425" gradientUnits="userSpaceOnUse">
<stop/>
<stop offset="0.2" stop-color="#513B31"/>
<stop offset="0.5" stop-color="#8D6654"/>
<stop offset="0.8" stop-color="#513B31"/>
<stop offset="1"/>
</linearGradient>
</defs>
</svg>
